<svg width="38" height="38" viewBox="0 0 38 38" fill="none" xmlns="http://www.w3.org/2000/svg">
<path fill-rule="evenodd" clip-rule="evenodd" d="M26 22C31.5228 22 36 17.5228 36 12C36 6.47715 31.5228 2 26 2C20.4772 2 16 6.47715 16 12C16 17.5228 20.4772 22 26 22Z" fill="#C7A17A"/>
<rect y="12" width="24" height="24" fill="#415167"/>
<path d="M4.31755 16.6639H17.7273C17.7677 16.6639 17.8045 16.6793 17.8424 16.6909L18.172 15.5896C18.2768 15.2394 18.5945 15 18.9546 15H20.5909C20.8168 15 21 15.1862 21 15.416V16.2479C21 16.4776 20.8168 16.6639 20.5909 16.6639H19.5606L17.0045 25.2046L17.9592 26.337C18.3365 26.7846 18.5064 27.4013 18.3327 27.9637C18.1106 28.683 17.4863 29.1429 16.7664 29.1429H5.04544C4.81951 29.1429 4.63634 28.9566 4.63634 28.7269V27.895C4.63634 27.6652 4.81951 27.479 5.04544 27.479H16.7665L15.4697 25.9406C15.4371 25.9019 15.4131 25.8583 15.3884 25.8151H7.46083C6.82675 25.8151 6.24974 25.4428 5.97974 24.8594L3.12503 18.6913C3.04315 18.5137 3 18.3167 3 18.1213V18.0035C3 17.2637 3.5899 16.6639 4.31755 16.6639Z" fill="#F9FBFF"/>
<path d="M16.1786 33.0001C15.291 33.0001 14.5714 32.2805 14.5714 31.3929C14.5714 30.5053 15.291 29.7858 16.1786 29.7858C17.0662 29.7858 17.7857 30.5053 17.7857 31.3929C17.7857 32.2805 17.0662 33.0001 16.1786 33.0001Z" fill="white"/>
<path d="M6.53574 33.0001C5.64814 33.0001 4.9286 32.2805 4.9286 31.3929C4.9286 30.5053 5.64814 29.7858 6.53574 29.7858C7.42334 29.7858 8.14288 30.5053 8.14288 31.3929C8.14288 32.2805 7.42334 33.0001 6.53574 33.0001Z" fill="white"/>
<path d="M24.1416 16.8182C23.9736 16.8182 23.8476 16.7809 23.7636 16.7062C23.689 16.6222 23.6516 16.5149 23.6516 16.3842C23.6516 16.3096 23.6703 16.2349 23.7076 16.1602C23.745 16.0856 23.7963 16.0156 23.8616 15.9502L27.1376 12.4082C27.6416 11.8669 28.0056 11.3676 28.2296 10.9102C28.4536 10.4436 28.5656 9.96757 28.5656 9.48224C28.5656 8.87557 28.3836 8.41357 28.0196 8.09624C27.6556 7.7789 27.1236 7.62024 26.4236 7.62024C25.957 7.62024 25.523 7.69957 25.1216 7.85824C24.7296 8.00757 24.3516 8.23157 23.9876 8.53024C23.8943 8.6049 23.8056 8.64224 23.7216 8.64224C23.647 8.64224 23.5816 8.6189 23.5256 8.57224C23.4696 8.51624 23.4276 8.4509 23.3996 8.37624C23.381 8.29224 23.381 8.20824 23.3996 8.12424C23.4276 8.04024 23.479 7.96557 23.5536 7.90024C23.9176 7.5829 24.3563 7.32624 24.8696 7.13024C25.383 6.93424 25.915 6.83624 26.4656 6.83624C27.1003 6.83624 27.637 6.9389 28.0756 7.14424C28.5236 7.34024 28.8643 7.63424 29.0976 8.02624C29.331 8.41824 29.4476 8.88957 29.4476 9.44024C29.4476 9.83224 29.3823 10.2196 29.2516 10.6022C29.121 10.9849 28.925 11.3722 28.6636 11.7642C28.4116 12.1562 28.085 12.5669 27.6836 12.9962L24.5336 16.3282V16.0622H29.5316C29.6623 16.0622 29.7603 16.0949 29.8256 16.1602C29.9003 16.2162 29.9376 16.3049 29.9376 16.4262C29.9376 16.5569 29.9003 16.6549 29.8256 16.7202C29.7603 16.7856 29.6623 16.8182 29.5316 16.8182H24.1416Z" fill="#F9FBFF"/>
</svg>
